<svg width="24" height="25" viewBox="0 0 24 25" fill="none" xmlns="http://www.w3.org/2000/svg">
<path d="M9.846 21.1042L8.858 17.7642C8.59533 17.6129 8.38667 17.4039 8.232 17.1372C8.07733 16.8706 8 16.5709 8 16.2382V7.97025C8 7.63425 8.08033 7.33291 8.241 7.06625C8.40233 6.79958 8.61433 6.59058 8.877 6.43925L9.847 3.10425H14.154L15.092 6.41425C15.372 6.56891 15.5933 6.77958 15.756 7.04625C15.9187 7.31291 16 7.62058 16 7.96925V16.2392C16 16.5879 15.9197 16.8956 15.759 17.1622C15.5977 17.4289 15.3773 17.6396 15.098 17.7942L14.154 21.1042H9.846ZM9.808 17.0842H14.192C14.4247 17.0842 14.6173 17.0079 14.77 16.8552C14.9227 16.7026 14.9993 16.5099 15 16.2772V7.93125C15 7.69925 14.9233 7.50658 14.77 7.35325C14.6167 7.19991 14.424 7.12325 14.192 7.12325H9.808C9.576 7.12325 9.38333 7.19991 9.23 7.35325C9.07667 7.50658 9 7.69925 9 7.93125V16.2772C9 16.5092 9.07667 16.7019 9.23 16.8552C9.38333 17.0086 9.576 17.0852 9.808 17.0852" fill="#8FAA0D"/>
</svg>
