<svg width="25" height="25" viewBox="0 0 25 25" fill="none" xmlns="http://www.w3.org/2000/svg">
<path d="M12.5049 12.6042C12.781 12.6042 13.0049 12.3804 13.0049 12.1042C13.0049 11.8281 12.781 11.6042 12.5049 11.6042C12.2287 11.6042 12.0049 11.8281 12.0049 12.1042C12.0049 12.3804 12.2287 12.6042 12.5049 12.6042Z" fill="#8FAA0D" stroke="#8FAA0D" stroke-width="2" stroke-linecap="round" stroke-linejoin="round"/>
<path d="M5.50488 12.1042C5.50488 13.0235 5.68594 13.9338 6.03773 14.783C6.38951 15.6323 6.90513 16.404 7.55514 17.054C8.20515 17.704 8.97682 18.2196 9.8261 18.5714C10.6754 18.9232 11.5856 19.1042 12.5049 19.1042M5.50488 12.1042C5.50488 11.185 5.68594 10.2747 6.03773 9.42546C6.38951 8.57618 6.90513 7.80451 7.55514 7.1545C8.20515 6.50449 8.97682 5.98887 9.8261 5.63709C10.6754 5.28531 11.5856 5.10425 12.5049 5.10425M5.50488 12.1042H3.50488M12.5049 19.1042C13.4241 19.1042 14.3344 18.9232 15.1837 18.5714C16.0329 18.2196 16.8046 17.704 17.4546 17.054C18.1046 16.404 18.6203 15.6323 18.972 14.783C19.3238 13.9338 19.5049 13.0235 19.5049 12.1042M12.5049 19.1042V21.1042M19.5049 12.1042C19.5049 11.185 19.3238 10.2747 18.972 9.42546C18.6203 8.57618 18.1046 7.80451 17.4546 7.1545C16.8046 6.50449 16.0329 5.98887 15.1837 5.63709C14.3344 5.28531 13.4241 5.10425 12.5049 5.10425M19.5049 12.1042H21.5049M12.5049 5.10425V3.10425" stroke="#8FAA0D" stroke-width="2" stroke-linecap="round" stroke-linejoin="round"/>
</svg>
