<svg width="23" height="23" viewBox="0 0 23 23" fill="none" xmlns="http://www.w3.org/2000/svg">
<path d="M0.416992 0.901855L0.497477 17.1045C1.23234 17.5039 2.18179 17.4167 2.82951 17.0283C3.59718 16.513 3.76045 15.847 3.36135 15.1665C0.596289 10.5828 1.21241 6.28751 3.62793 3.87701C6.04345 1.46651 10.2021 1.01417 14.1602 3.80075C14.7996 4.25084 15.1148 4.25121 15.313 4.15967C16.1896 3.23637 16.3353 2.14357 16.5347 0.934059L0.416992 0.901855ZM8.50879 2.74306C8.3017 2.74573 8.09844 2.75712 7.89787 2.77821L12.5371 5.90436L13.3119 4.28271C11.7856 3.44843 10.0393 2.74296 8.50879 2.74306ZM18.9357 3.2615C18.8772 3.26327 18.8193 3.27352 18.7638 3.29192C18.1515 3.5914 18.344 4.43061 18.4768 4.90086C18.2819 4.99287 18.1209 5.15234 18.0024 5.32531C17.8032 5.61589 17.6777 5.98404 17.6328 6.39626C17.5656 7.13229 17.8296 8.11053 18.5503 8.20868C19.4243 8.19368 19.7858 7.23532 19.8441 6.55212C20.3943 7.10923 21.3759 7.6579 21.9615 7.09676C22.4839 6.40545 22.0004 5.58307 21.5312 5.11142C21.0966 4.73126 20.5943 4.39798 20.0426 4.46215C19.8538 4.00807 19.4733 3.24762 18.9357 3.2615ZM5.1749 4.30264L5.00005 5.12811C7.6738 5.97537 9.80287 5.68789 11.796 7.9257C12.5171 8.73528 13.36 10.6297 14.2811 11.1976C15.813 11.7802 16.7984 10.8739 18.1104 10.5928C19.8809 10.584 20.7623 13.2229 21.1704 14.6359L21.9838 14.4117C21.3263 12.3542 19.7279 9.48003 17.9399 9.76643C16.9154 9.93551 15.5315 10.899 14.7126 10.4726C14.1198 9.69785 13.1433 7.697 12.5837 7.10112C10.0377 5.09909 8.29448 4.97754 5.1749 4.30264ZM20.2893 5.31167C20.7311 5.56451 21.4972 5.85776 21.3581 6.49981C21.3645 6.49873 21.3664 6.49854 21.3617 6.50332C21.357 6.50801 21.3571 6.50614 21.3581 6.49981C20.6106 6.57293 20.3633 5.76322 20.2892 5.31167H20.2893ZM18.7866 5.69782C19.0638 6.14426 19.2006 7.01637 18.6423 7.36493C18.6471 7.36915 18.6484 7.37065 18.6418 7.36995C18.6351 7.36925 18.6367 7.36803 18.6423 7.36493C18.2786 6.96762 18.4605 5.97486 18.7866 5.69782ZM3.69093 5.79523L3.34696 6.56567C5.64923 7.75207 8.43777 8.87164 10.4487 10.7061C11.4201 11.8064 11.7207 13.5575 12.8804 14.2339C13.8471 14.8711 15.6362 13.9437 16.434 14.3754C17.8002 15.5661 18.4935 17.0345 19.1168 18.7121L19.9109 18.4268C19.1591 16.7914 18.4066 14.5905 16.8569 13.6452C15.8823 12.9864 14.1039 13.9192 13.2908 13.4967C12.131 12.616 11.9509 10.9837 11.0251 10.09C8.67796 8.22228 6.40274 7.01459 3.69093 5.79523ZM3.23235 7.68204L2.69254 8.33051C2.69254 8.33051 6.38723 11.4309 7.72926 13.2273C8.50359 14.4642 8.70641 16.2765 9.79391 17.0601C11.0561 18.0056 13.6229 16.8912 14.6124 17.6422C15.6491 18.9467 15.9496 20.512 16.1227 22.143L16.9627 22.064C16.6571 20.3921 16.4357 18.0866 15.1428 16.9859C13.8653 15.9114 11.3517 17.0645 10.2739 16.3661C9.18871 15.3818 9.16495 13.7688 8.40515 12.7223C6.90491 10.7141 3.23235 7.68204 3.23235 7.68204ZM2.39882 9.22217L2.39891 9.22235V9.22217H2.39882ZM2.39891 9.22235C2.40271 10.7447 2.84245 12.4589 3.85645 14.2774L4.89355 13.6621L2.39891 9.22235ZM7.70259 17.6652C6.72782 17.8172 5.58571 18.689 5.64327 19.7059C5.11762 19.8865 4.23337 20.2855 4.39954 20.9134C4.66237 21.5423 5.51151 21.3996 5.9887 21.2948C6.06904 21.4949 6.21876 21.6649 6.38441 21.7936C6.66271 22.0095 7.02285 22.1564 7.43179 22.2257C7.84068 22.2949 8.22899 22.2747 8.56288 22.1623C8.89682 22.0499 9.22804 21.8132 9.29512 21.4166C9.3622 21.02 9.1274 20.6877 8.8491 20.4717C8.47044 20.2301 8.09568 20.0782 7.71768 20.0275C8.05457 19.7477 8.37726 19.3503 8.51474 18.983C8.63451 18.6516 8.65518 18.2451 8.38649 17.9458C8.20176 17.7401 7.95187 17.665 7.70259 17.6652ZM7.75504 18.506C7.75554 18.5062 7.75673 18.5074 7.7586 18.5096C7.76305 18.5145 7.76118 18.5143 7.75495 18.5129C7.70699 18.8976 7.28905 19.3227 6.99627 19.4994C6.83188 19.485 6.6531 19.4937 6.50582 19.5098C6.6756 19.0162 7.36129 18.4833 7.75495 18.5129C7.75452 18.5093 7.75429 18.5057 7.75504 18.506ZM7.61193 20.9042C7.96724 20.9094 8.29649 21.0099 8.45826 21.275C8.46276 21.2704 8.46435 21.2692 8.46318 21.2758C8.4621 21.2824 8.46107 21.2808 8.45826 21.275C8.02246 21.5809 7.12204 21.3865 6.80254 21.0327C7.04362 20.9538 7.33565 20.9001 7.61193 20.9042V20.9042Z" fill="#8FAA0D"/>
</svg>
